<svg width="118" height="30" viewBox="0 0 118 30" fill="none" xmlns="http://www.w3.org/2000/svg">
<rect x="0.408" y="0.408977" width="117.184" height="29.184" rx="2.856" fill="black"/>
<path d="M59.461 16.3141C57.5418 16.3141 55.9775 17.6559 55.9775 19.5039C55.9775 21.3406 57.5418 22.6936 59.461 22.6936C61.381 22.6936 62.9453 21.3406 62.9453 19.5039C62.9445 17.6559 61.3802 16.3141 59.461 16.3141ZM59.461 21.4381C58.4092 21.4381 57.5026 20.6409 57.5026 19.5046C57.5026 18.3564 58.41 17.5711 59.461 17.5711C60.5128 17.5711 61.4194 18.3564 61.4194 19.5046C61.4194 20.6401 60.5128 21.4381 59.461 21.4381ZM51.8608 16.3141C49.9415 16.3141 48.3773 17.6559 48.3773 19.5039C48.3773 21.3406 49.9415 22.6936 51.8608 22.6936C53.7808 22.6936 55.3451 21.3406 55.3451 19.5039C55.3451 17.6559 53.7808 16.3141 51.8608 16.3141ZM51.8608 21.4381C50.8089 21.4381 49.9024 20.6409 49.9024 19.5046C49.9024 18.3564 50.8098 17.5711 51.8608 17.5711C52.9126 17.5711 53.8192 18.3564 53.8192 19.5046C53.82 20.6401 52.9126 21.4381 51.8608 21.4381ZM42.8211 17.2936V18.6466H46.3446C46.2394 19.4079 45.9635 19.9636 45.5425 20.3499C45.03 20.8209 44.2279 21.3406 42.8211 21.3406C40.6522 21.3406 38.9566 19.7334 38.9566 17.7399C38.9566 15.7464 40.6522 14.1391 42.8211 14.1391C43.9913 14.1391 44.8456 14.5621 45.4764 15.1059L46.5152 14.1511C45.6339 13.3779 44.4646 12.7861 42.8211 12.7861C39.8501 12.7861 37.3523 15.0091 37.3523 17.7399C37.3523 20.4706 39.8501 22.6936 42.8211 22.6936C44.4246 22.6936 45.6347 22.2099 46.5804 21.3039C47.5531 20.4099 47.8558 19.1529 47.8558 18.1381C47.8558 17.8246 47.8297 17.5344 47.7767 17.2929H42.8211V17.2936ZM79.7925 18.3444C79.5036 17.6319 78.6223 16.3141 76.8214 16.3141C75.0335 16.3141 73.5476 17.6071 73.5476 19.5039C73.5476 21.2919 75.0205 22.6936 76.9919 22.6936C78.5823 22.6936 79.5028 21.7996 79.8847 21.2799L78.7015 20.5546C78.3073 21.0864 77.768 21.4366 76.9919 21.4366C76.2167 21.4366 75.6643 21.1104 75.3093 20.4699L79.9499 18.7059L79.7925 18.3444ZM75.0597 19.4079C75.0205 18.1749 76.0984 17.5471 76.8744 17.5471C77.4791 17.5471 77.9915 17.8254 78.1629 18.2236L75.0597 19.4079ZM71.2873 22.5009H72.8116V13.1251H71.2873V22.5009ZM68.7887 17.0274H68.7365C68.3946 16.6524 67.7369 16.3141 66.9094 16.3141C65.1738 16.3141 63.5834 17.7159 63.5834 19.5166C63.5834 21.3046 65.1738 22.6944 66.9094 22.6944C67.7377 22.6944 68.3946 22.3561 68.7365 21.9699H68.7887V22.4289C68.7887 23.6491 68.0788 24.3016 66.9356 24.3016C66.0021 24.3016 65.4235 23.6859 65.1869 23.1661L63.8592 23.6739C64.2403 24.5191 65.2521 25.5586 66.9356 25.5586C68.7234 25.5586 70.2355 24.5919 70.2355 22.2354V16.5084H68.7895V17.0274H68.7887ZM67.0408 21.4381C65.989 21.4381 65.1085 20.6281 65.1085 19.5166C65.1085 18.3924 65.989 17.5711 67.0408 17.5711C68.0788 17.5711 68.894 18.3924 68.894 19.5166C68.894 20.6281 68.0788 21.4381 67.0408 21.4381ZM86.9357 13.1251H83.2874V22.5009H84.8092V18.9489H86.9349C88.6224 18.9489 90.2821 17.8261 90.2821 16.0374C90.2821 14.2486 88.6232 13.1251 86.9357 13.1251ZM86.9749 17.6439H84.8092V14.4301H86.9749C88.1132 14.4301 88.7595 15.2964 88.7595 16.0374C88.7595 16.7634 88.1132 17.6439 86.9749 17.6439ZM96.385 16.2976C95.2826 16.2976 94.141 16.7439 93.6685 17.7331L95.0198 18.2514C95.3087 17.7331 95.8473 17.5636 96.4111 17.5636C97.1986 17.5636 97.999 17.9979 98.0121 18.7696V18.8664C97.7363 18.7216 97.1455 18.5049 96.4242 18.5049C94.9676 18.5049 93.4841 19.2406 93.4841 20.6154C93.4841 21.8701 94.6787 22.6779 96.017 22.6779C97.0402 22.6779 97.6049 22.2556 97.9591 21.7606H98.0113V22.4844H99.4817V18.8896C99.4825 17.2261 98.1296 16.2976 96.385 16.2976ZM96.2006 21.4359C95.7028 21.4359 95.0068 21.2064 95.0068 20.6394C95.0068 19.9156 95.8734 19.6381 96.6216 19.6381C97.2899 19.6381 97.6057 19.7709 98.0121 19.9516C97.8938 20.8209 97.0802 21.4359 96.2006 21.4359ZM104.836 16.5024L103.091 20.5674H103.039L101.227 16.5024H99.587L102.303 22.1836L100.755 25.3441H102.343L106.53 16.5024H104.836ZM91.1226 22.5009H92.6445V13.1251H91.1226V22.5009Z" fill="white"/>
<path d="M42.5551 7.68337C42.5551 8.31187 42.3527 8.81212 41.9472 9.18562C41.4869 9.62962 40.8864 9.85162 40.1487 9.85162C39.442 9.85162 38.8406 9.62662 38.347 9.17662C37.8525 8.72587 37.6052 8.16787 37.6052 7.50187C37.6052 6.83512 37.8525 6.27712 38.347 5.82712C38.8406 5.37637 39.442 5.15137 40.1487 5.15137C40.4996 5.15137 40.835 5.21437 41.1532 5.33962C41.4722 5.46562 41.7277 5.63287 41.9186 5.84212L41.4886 6.23812C41.1646 5.88187 40.7183 5.70412 40.1479 5.70412C39.6322 5.70412 39.1866 5.87062 38.8105 6.20362C38.4343 6.53662 38.2466 6.96937 38.2466 7.50112C38.2466 8.03287 38.4343 8.46562 38.8105 8.79862C39.1866 9.13162 39.6322 9.29812 40.1479 9.29812C40.6946 9.29812 41.1507 9.13087 41.5155 8.79562C41.7521 8.57737 41.8892 8.27362 41.9259 7.88437H40.1479V7.34362H42.52C42.5445 7.46137 42.5551 7.57462 42.5551 7.68337Z" fill="white"/>
<path d="M46.3169 5.80391H44.0876V7.23041H46.0982V7.77116H44.0876V9.19766H46.3169V9.75116H43.4585V5.25116H46.3169V5.80391Z" fill="white"/>
<path d="M48.9696 9.75116H48.3405V5.80391H46.9729V5.25116H50.3373V5.80391H48.9696V9.75116Z" fill="white"/>
<path d="M52.7714 9.75116V5.25116H53.4005V9.75116H52.7714Z" fill="white"/>
<path d="M56.1905 9.75116H55.5614V5.80391H54.1938V5.25116H57.5581V5.80391H56.1905V9.75116Z" fill="white"/>
<path d="M63.9268 9.1699C63.4454 9.6244 62.8473 9.85165 62.1316 9.85165C61.416 9.85165 60.8179 9.6244 60.3373 9.1699C59.8558 8.7154 59.6159 8.1589 59.6159 7.50115C59.6159 6.8434 59.8558 6.2869 60.3373 5.8324C60.8179 5.3779 61.416 5.1499 62.1316 5.1499C62.8432 5.1499 63.4405 5.37865 63.9236 5.8354C64.4066 6.29215 64.6482 6.84715 64.6482 7.50115C64.6482 8.1589 64.4075 8.7154 63.9268 9.1699ZM60.8016 8.79265C61.1639 9.13015 61.6069 9.29815 62.1316 9.29815C62.6563 9.29815 63.1002 9.1294 63.4617 8.79265C63.824 8.45515 64.006 8.02465 64.006 7.50115C64.006 6.97765 63.824 6.54715 63.4617 6.20965C63.1002 5.87215 62.6563 5.70415 62.1316 5.70415C61.6069 5.70415 61.1639 5.8729 60.8016 6.20965C60.4401 6.54715 60.2581 6.97765 60.2581 7.50115C60.2581 8.02465 60.4401 8.45515 60.8016 8.79265Z" fill="white"/>
<path d="M65.5311 9.75116V5.25116H66.2965L68.676 8.75141H68.7029L68.676 7.88441V5.25116H69.3051V9.75116H68.6482L66.1586 6.08066H66.1317L66.1586 6.94766V9.75116H65.5311Z" fill="white"/>
<path d="M42.5551 7.68337C42.5551 8.31187 42.3527 8.81212 41.9472 9.18562C41.4869 9.62962 40.8864 9.85162 40.1487 9.85162C39.442 9.85162 38.8406 9.62662 38.347 9.17662C37.8525 8.72587 37.6052 8.16787 37.6052 7.50187C37.6052 6.83512 37.8525 6.27712 38.347 5.82712C38.8406 5.37637 39.442 5.15137 40.1487 5.15137C40.4996 5.15137 40.835 5.21437 41.1532 5.33962C41.4722 5.46562 41.7277 5.63287 41.9186 5.84212L41.4886 6.23812C41.1646 5.88187 40.7183 5.70412 40.1479 5.70412C39.6322 5.70412 39.1866 5.87062 38.8105 6.20362C38.4343 6.53662 38.2466 6.96937 38.2466 7.50112C38.2466 8.03287 38.4343 8.46562 38.8105 8.79862C39.1866 9.13162 39.6322 9.29812 40.1479 9.29812C40.6946 9.29812 41.1507 9.13087 41.5155 8.79562C41.7521 8.57737 41.8892 8.27362 41.9259 7.88437H40.1479V7.34362H42.52C42.5445 7.46137 42.5551 7.57462 42.5551 7.68337Z" stroke="white" stroke-width="0.1632" stroke-miterlimit="10"/>
<path d="M46.3169 5.80391H44.0876V7.23041H46.0982V7.77116H44.0876V9.19766H46.3169V9.75116H43.4585V5.25116H46.3169V5.80391Z" stroke="white" stroke-width="0.1632" stroke-miterlimit="10"/>
<path d="M48.9696 9.75116H48.3405V5.80391H46.9729V5.25116H50.3373V5.80391H48.9696V9.75116Z" stroke="white" stroke-width="0.1632" stroke-miterlimit="10"/>
<path d="M52.7714 9.75116V5.25116H53.4005V9.75116H52.7714Z" stroke="white" stroke-width="0.1632" stroke-miterlimit="10"/>
<path d="M56.1905 9.75116H55.5614V5.80391H54.1938V5.25116H57.5581V5.80391H56.1905V9.75116Z" stroke="white" stroke-width="0.1632" stroke-miterlimit="10"/>
<path d="M63.9268 9.1699C63.4454 9.6244 62.8473 9.85165 62.1316 9.85165C61.416 9.85165 60.8179 9.6244 60.3373 9.1699C59.8558 8.7154 59.6159 8.1589 59.6159 7.50115C59.6159 6.8434 59.8558 6.2869 60.3373 5.8324C60.8179 5.3779 61.416 5.1499 62.1316 5.1499C62.8432 5.1499 63.4405 5.37865 63.9236 5.8354C64.4066 6.29215 64.6482 6.84715 64.6482 7.50115C64.6482 8.1589 64.4075 8.7154 63.9268 9.1699ZM60.8016 8.79265C61.1639 9.13015 61.6069 9.29815 62.1316 9.29815C62.6563 9.29815 63.1002 9.1294 63.4617 8.79265C63.824 8.45515 64.006 8.02465 64.006 7.50115C64.006 6.97765 63.824 6.54715 63.4617 6.20965C63.1002 5.87215 62.6563 5.70415 62.1316 5.70415C61.6069 5.70415 61.1639 5.8729 60.8016 6.20965C60.4401 6.54715 60.2581 6.97765 60.2581 7.50115C60.2581 8.02465 60.4401 8.45515 60.8016 8.79265Z" stroke="white" stroke-width="0.1632" stroke-miterlimit="10"/>
<path d="M65.5311 9.75116V5.25116H66.2965L68.676 8.75141H68.7029L68.676 7.88441V5.25116H69.3051V9.75116H68.6482L66.1586 6.08066H66.1317L66.1586 6.94766V9.75116H65.5311Z" stroke="white" stroke-width="0.1632" stroke-miterlimit="10"/>
<g filter="url(#filter0_ii_280_540)">
<path d="M12.3778 5.65448C12.1404 5.88548 12 6.24398 12 6.70823V23.2952C12 23.7602 12.1404 24.118 12.3778 24.349L12.4382 24.403L22.5476 15.1112V15.0017V14.8922L12.4382 5.59973L12.3778 5.65448Z" fill="url(#paint0_linear_280_540)"/>
<path d="M25.9169 18.2096L22.5476 15.1113V15.0018V14.8923L25.9177 11.7948L25.9936 11.8346L29.9863 13.9196C31.1262 14.5151 31.1262 15.4893 29.9863 16.0856L25.9936 18.1706L25.9169 18.2096Z" fill="url(#paint1_linear_280_540)"/>
<g filter="url(#filter1_i_280_540)">
<path d="M25.9935 18.1699L22.5467 15.0019L12.3777 24.3491C12.7531 24.7151 13.3741 24.7601 14.0734 24.3956L25.9935 18.1699Z" fill="url(#paint2_linear_280_540)"/>
</g>
<path d="M25.9935 11.8337L14.0734 5.60875C13.3741 5.2435 12.7531 5.28925 12.3777 5.65525L22.5476 15.0025L25.9935 11.8337Z" fill="url(#paint3_linear_280_540)"/>
</g>
<rect x="0.408" y="0.408977" width="117.184" height="29.184" rx="2.856" stroke="#BFBFBF" stroke-width="0.816"/>
<defs>
<filter id="filter0_ii_280_540" x="12" y="5.35669" width="18.8412" height="19.2907" filterUnits="userSpaceOnUse" color-interpolation-filters="sRGB">
<feFlood flood-opacity="0" result="BackgroundImageFix"/>
<feBlend mode="normal" in="SourceGraphic" in2="BackgroundImageFix" result="shape"/>
<feColorMatrix in="SourceAlpha" type="matrix" values="0 0 0 0 0 0 0 0 0 0 0 0 0 0 0 0 0 0 127 0" result="hardAlpha"/>
<feOffset dy="-0.1224"/>
<feComposite in2="hardAlpha" operator="arithmetic" k2="-1" k3="1"/>
<feColorMatrix type="matrix" values="0 0 0 0 0 0 0 0 0 0 0 0 0 0 0 0 0 0 0.12 0"/>
<feBlend mode="normal" in2="shape" result="effect1_innerShadow_280_540"/>
<feColorMatrix in="SourceAlpha" type="matrix" values="0 0 0 0 0 0 0 0 0 0 0 0 0 0 0 0 0 0 127 0" result="hardAlpha"/>
<feOffset dy="0.1224"/>
<feComposite in2="hardAlpha" operator="arithmetic" k2="-1" k3="1"/>
<feColorMatrix type="matrix" values="0 0 0 0 1 0 0 0 0 1 0 0 0 0 1 0 0 0 0.25 0"/>
<feBlend mode="normal" in2="effect1_innerShadow_280_540" result="effect2_innerShadow_280_540"/>
</filter>
<filter id="filter1_i_280_540" x="12.3777" y="15.0019" width="13.6158" height="9.64551" filterUnits="userSpaceOnUse" color-interpolation-filters="sRGB">
<feFlood flood-opacity="0" result="BackgroundImageFix"/>
<feBlend mode="normal" in="SourceGraphic" in2="BackgroundImageFix" result="shape"/>
<feColorMatrix in="SourceAlpha" type="matrix" values="0 0 0 0 0 0 0 0 0 0 0 0 0 0 0 0 0 0 127 0" result="hardAlpha"/>
<feOffset dy="-0.1224"/>
<feComposite in2="hardAlpha" operator="arithmetic" k2="-1" k3="1"/>
<feColorMatrix type="matrix" values="0 0 0 0 0 0 0 0 0 0 0 0 0 0 0 0 0 0 0.08 0"/>
<feBlend mode="normal" in2="shape" result="effect1_innerShadow_280_540"/>
</filter>
<linearGradient id="paint0_linear_280_540" x1="21.6515" y1="6.53273" x2="9.10962" y2="20.1783" gradientUnits="userSpaceOnUse">
<stop stop-color="#00A0FF"/>
<stop offset="0.0066" stop-color="#00A1FF"/>
<stop offset="0.2601" stop-color="#00BEFF"/>
<stop offset="0.5122" stop-color="#00D2FF"/>
<stop offset="0.7604" stop-color="#00DFFF"/>
<stop offset="1" stop-color="#00E3FF"/>
</linearGradient>
<linearGradient id="paint1_linear_280_540" x1="31.4702" y1="15.0018" x2="11.7263" y2="15.0018" gradientUnits="userSpaceOnUse">
<stop stop-color="#FFE000"/>
<stop offset="0.4087" stop-color="#FFBD00"/>
<stop offset="0.7754" stop-color="#FFA500"/>
<stop offset="1" stop-color="#FF9C00"/>
</linearGradient>
<linearGradient id="paint2_linear_280_540" x1="24.1217" y1="16.7223" x2="7.11336" y2="35.2274" gradientUnits="userSpaceOnUse">
<stop stop-color="#FF3A44"/>
<stop offset="1" stop-color="#C31162"/>
</linearGradient>
<linearGradient id="paint3_linear_280_540" x1="9.81665" y1="0.133597" x2="17.4113" y2="8.39663" gradientUnits="userSpaceOnUse">
<stop stop-color="#32A071"/>
<stop offset="0.0685" stop-color="#2DA771"/>
<stop offset="0.4762" stop-color="#15CF74"/>
<stop offset="0.8009" stop-color="#06E775"/>
<stop offset="1" stop-color="#00F076"/>
</linearGradient>
</defs>
</svg>
