<svg width="118" height="30" viewBox="0 0 118 30" fill="none" xmlns="http://www.w3.org/2000/svg">
<rect x="0.408" y="0.408977" width="117.184" height="29.184" rx="2.856" fill="black"/>
<path d="M72.3881 14.4017V16.12H71.2163V17.2468H72.3881V21.0756C72.3881 22.3829 73.0316 22.9059 74.6504 22.9059C74.9349 22.9059 75.2058 22.8748 75.4429 22.8374V21.723C75.2397 21.7417 75.111 21.7542 74.8875 21.7542C74.1627 21.7542 73.8444 21.4429 73.8444 20.7332V17.2468H75.4429V16.12H73.8444V14.4017H72.3881Z" fill="white"/>
<path d="M79.5668 22.9993C81.7208 22.9993 83.0416 21.6732 83.0416 19.4756C83.0416 17.2904 81.714 15.9581 79.5668 15.9581C77.4129 15.9581 76.0853 17.2904 76.0853 19.4756C76.0853 21.6732 77.4061 22.9993 79.5668 22.9993ZM79.5668 21.8102C78.3002 21.8102 77.589 20.9573 77.589 19.4756C77.589 18.0064 78.3002 17.1472 79.5668 17.1472C80.8267 17.1472 81.5447 18.0064 81.5447 19.4756C81.5447 20.9511 80.8267 21.8102 79.5668 21.8102Z" fill="white"/>
<path d="M84.1717 22.8685H85.628V18.8655C85.628 17.913 86.4069 17.2717 87.511 17.2717C87.7684 17.2717 88.2019 17.3153 88.3238 17.3527V16.0328C88.168 15.9955 87.8903 15.9768 87.6736 15.9768C86.7117 15.9768 85.8921 16.4624 85.6822 17.1286H85.5738V16.0889H84.1717V22.8685Z" fill="white"/>
<path d="M91.9397 17.0974C93.0167 17.0974 93.7212 17.7885 93.755 18.853H90.0296C90.1109 17.7947 90.8628 17.0974 91.9397 17.0974ZM93.7482 21.0382C93.4773 21.5674 92.8745 21.86 91.9939 21.86C90.8289 21.86 90.077 21.1067 90.0296 19.9176V19.8429H95.2384V19.376C95.2384 17.2468 93.9989 15.9581 91.9465 15.9581C89.8671 15.9581 88.5462 17.334 88.5462 19.5005C88.5462 21.667 89.84 22.9993 91.9533 22.9993C93.6399 22.9993 94.8185 22.2522 95.1503 21.0382H93.7482Z" fill="white"/>
<path d="M62.838 20.3649C62.9503 22.0297 64.4597 23.0944 66.7062 23.0944C69.1072 23.0944 70.6096 21.9781 70.6096 20.1971C70.6096 18.7969 69.7531 18.0226 67.6751 17.5774L66.5588 17.3257C65.239 17.0418 64.7054 16.6611 64.7054 15.9965C64.7054 15.1576 65.5338 14.6092 66.7764 14.6092C67.9559 14.6092 68.7702 15.1447 68.9177 16.0029H70.4481C70.3569 14.4349 68.8545 13.3315 66.7975 13.3315C64.5861 13.3315 63.1118 14.4349 63.1118 16.0933C63.1118 17.4612 63.9472 18.2743 65.7795 18.6679L67.0853 18.9582C68.4262 19.2486 69.016 19.6745 69.016 20.3843C69.016 21.2102 68.0893 21.8103 66.8256 21.8103C65.4706 21.8103 64.5299 21.2489 64.3965 20.3649H62.838Z" fill="white"/>
<path d="M47.7523 15.9768C46.7498 15.9768 45.8828 16.4375 45.4358 17.2095H45.3274V16.0889H43.9253V25.1222H45.3816V21.8413H45.4967C45.8828 22.5573 46.716 22.9806 47.7658 22.9806C49.6285 22.9806 50.8139 21.6296 50.8139 19.4756C50.8139 17.3215 49.6285 15.9768 47.7523 15.9768ZM47.3391 21.7791C46.1199 21.7791 45.3545 20.895 45.3545 19.4818C45.3545 18.0624 46.1199 17.1784 47.3459 17.1784C48.5786 17.1784 49.317 18.0437 49.317 19.4756C49.317 20.9137 48.5786 21.7791 47.3391 21.7791Z" fill="white"/>
<path d="M55.9097 15.9768C54.9072 15.9768 54.0402 16.4375 53.5932 17.2095H53.4848V16.0889H52.0827V25.1222H53.539V21.8413H53.6541C54.0402 22.5573 54.8733 22.9806 55.9232 22.9806C57.7859 22.9806 58.9713 21.6296 58.9713 19.4756C58.9713 17.3215 57.7859 15.9768 55.9097 15.9768ZM55.4965 21.7791C54.2773 21.7791 53.5119 20.895 53.5119 19.4818C53.5119 18.0624 54.2773 17.1784 55.5033 17.1784C56.736 17.1784 57.4743 18.0437 57.4743 19.4756C57.4743 20.9137 56.736 21.7791 55.4965 21.7791Z" fill="white"/>
<path d="M41.3125 22.8685H42.9833L39.3257 13.5574H37.6337L33.9761 22.8685H35.5908L36.5245 20.3972H40.3858L41.3125 22.8685ZM38.399 15.248H38.5183L39.9856 19.1841H36.9247L38.399 15.248Z" fill="white"/>
<path d="M34.9543 6.53424V11.026H36.7188C38.1751 11.026 39.0184 10.2011 39.0184 8.76611C39.0184 7.35291 38.1683 6.53424 36.7188 6.53424H34.9543ZM35.713 7.16925H36.6342C37.6468 7.16925 38.2462 7.76068 38.2462 8.77545C38.2462 9.80579 37.6569 10.391 36.6342 10.391H35.713V7.16925Z" fill="white"/>
<path d="M41.6011 11.0914C42.6781 11.0914 43.3385 10.4283 43.3385 9.32953C43.3385 8.23694 42.6747 7.5708 41.6011 7.5708C40.5241 7.5708 39.8603 8.23694 39.8603 9.32953C39.8603 10.4283 40.5208 11.0914 41.6011 11.0914ZM41.6011 10.4968C40.9678 10.4968 40.6122 10.0704 40.6122 9.32953C40.6122 8.59491 40.9678 8.16534 41.6011 8.16534C42.231 8.16534 42.59 8.59491 42.59 9.32953C42.59 10.0673 42.231 10.4968 41.6011 10.4968Z" fill="white"/>
<path d="M48.9625 7.63617H48.2343L47.5773 10.2229H47.5197L46.7611 7.63617H46.0635L45.3048 10.2229H45.2506L44.5902 7.63617H43.8519L44.8679 11.026H45.6164L46.375 8.52954H46.4326L47.1946 11.026H47.9499L48.9625 7.63617Z" fill="white"/>
<path d="M49.801 11.026H50.5292V9.04315C50.5292 8.51398 50.8712 8.18402 51.4097 8.18402C51.9482 8.18402 52.2056 8.45483 52.2056 8.99957V11.026H52.9338V8.83148C52.9338 8.02527 52.4799 7.5708 51.657 7.5708C51.1015 7.5708 50.7358 7.79803 50.5563 8.17468H50.5021V7.63617H49.801V11.026Z" fill="white"/>
<path d="M54.0805 11.026H54.8086V6.31323H54.0805V11.026Z" fill="white"/>
<path d="M57.5471 11.0914C58.6241 11.0914 59.2845 10.4283 59.2845 9.32953C59.2845 8.23694 58.6207 7.5708 57.5471 7.5708C56.4702 7.5708 55.8064 8.23694 55.8064 9.32953C55.8064 10.4283 56.4668 11.0914 57.5471 11.0914ZM57.5471 10.4968C56.9138 10.4968 56.5582 10.0704 56.5582 9.32953C56.5582 8.59491 56.9138 8.16534 57.5471 8.16534C58.1771 8.16534 58.5361 8.59491 58.5361 9.32953C58.5361 10.0673 58.1771 10.4968 57.5471 10.4968Z" fill="white"/>
<path d="M61.4541 10.5186C61.0578 10.5186 60.7699 10.3412 60.7699 10.0361C60.7699 9.7373 61.0002 9.57855 61.5082 9.54742L62.4091 9.49451V9.77777C62.4091 10.198 62.0027 10.5186 61.4541 10.5186ZM61.2678 11.082C61.7521 11.082 62.1551 10.889 62.3752 10.5497H62.4328V11.026H63.1339V8.71008C63.1339 7.99414 62.6123 7.5708 61.6877 7.5708C60.8512 7.5708 60.2552 7.94434 60.1807 8.52643H60.8851C60.9664 8.28674 61.2475 8.14978 61.6539 8.14978C62.1517 8.14978 62.4091 8.35211 62.4091 8.71008V9.00269L61.41 9.0556C60.5329 9.10541 60.0384 9.45715 60.0384 10.0673C60.0384 10.6867 60.5566 11.082 61.2678 11.082Z" fill="white"/>
<path d="M65.6048 11.082C66.1128 11.082 66.5429 10.861 66.7631 10.4906H66.8207V11.026H67.5183V6.31323H66.7902V8.17468H66.736C66.5362 7.80115 66.1094 7.58014 65.6048 7.58014C64.6735 7.58014 64.074 8.25873 64.074 9.32953C64.074 10.4034 64.6667 11.082 65.6048 11.082ZM65.8114 8.18091C66.421 8.18091 66.8037 8.62604 66.8037 9.33264C66.8037 10.0424 66.4244 10.4813 65.8114 10.4813C65.195 10.4813 64.8259 10.0486 64.8259 9.32953C64.8259 8.6167 65.1984 8.18091 65.8114 8.18091Z" fill="white"/>
<path d="M72.2401 11.0914C73.3171 11.0914 73.9775 10.4283 73.9775 9.32953C73.9775 8.23694 73.3137 7.5708 72.2401 7.5708C71.1631 7.5708 70.4993 8.23694 70.4993 9.32953C70.4993 10.4283 71.1597 11.0914 72.2401 11.0914ZM72.2401 10.4968C71.6068 10.4968 71.2512 10.0704 71.2512 9.32953C71.2512 8.59491 71.6068 8.16534 72.2401 8.16534C72.87 8.16534 73.229 8.59491 73.229 9.32953C73.229 10.0673 72.87 10.4968 72.2401 10.4968Z" fill="white"/>
<path d="M74.9413 11.026H75.6695V9.04315C75.6695 8.51398 76.0115 8.18402 76.55 8.18402C77.0885 8.18402 77.3459 8.45483 77.3459 8.99957V11.026H78.074V8.83148C78.074 8.02527 77.6202 7.5708 76.7973 7.5708C76.2418 7.5708 75.8761 7.79803 75.6966 8.17468H75.6424V7.63617H74.9413V11.026Z" fill="white"/>
<path d="M81.4276 6.7926V7.65173H80.8417V8.21515H81.4276V10.1295C81.4276 10.7832 81.7493 11.0447 82.5587 11.0447C82.701 11.0447 82.8364 11.0291 82.955 11.0104V10.4532C82.8534 10.4626 82.789 10.4688 82.6773 10.4688C82.3149 10.4688 82.1557 10.3132 82.1557 9.95831V8.21515H82.955V7.65173H82.1557V6.7926H81.4276Z" fill="white"/>
<path d="M83.9324 11.026H84.6605V9.04626C84.6605 8.53265 84.9924 8.18713 85.5885 8.18713C86.1033 8.18713 86.3776 8.46106 86.3776 9.00269V11.026H87.1057V8.83771C87.1057 8.03149 86.6214 7.57391 85.8357 7.57391C85.2803 7.57391 84.8908 7.80115 84.7113 8.18091H84.6538V6.31323H83.9324V11.026Z" fill="white"/>
<path d="M89.7325 8.14044C90.271 8.14044 90.6232 8.48596 90.6401 9.01825H88.7774C88.8181 8.48907 89.194 8.14044 89.7325 8.14044ZM90.6367 10.1108C90.5013 10.3754 90.1999 10.5217 89.7596 10.5217C89.1771 10.5217 88.8011 10.1451 88.7774 9.55054V9.51318H91.3818V9.27972C91.3818 8.21515 90.762 7.5708 89.7359 7.5708C88.6961 7.5708 88.0357 8.25873 88.0357 9.34198C88.0357 10.4252 88.6826 11.0914 89.7393 11.0914C90.5826 11.0914 91.1718 10.7178 91.3378 10.1108H90.6367Z" fill="white"/>
<path d="M26.0746 15.2265C26.0923 13.9658 26.8289 12.7728 27.9976 12.1125C27.2603 11.1447 26.0255 10.5312 24.7408 10.4942C23.3705 10.362 22.0421 11.2478 21.3438 11.2478C20.6321 11.2478 19.557 10.5073 18.3993 10.5292C16.8903 10.5741 15.4836 11.3626 14.7494 12.5751C13.1713 15.0865 14.3484 18.7772 15.8601 20.8072C16.6165 21.8012 17.5005 22.9116 18.6571 22.8722C19.7889 22.829 20.2117 22.2088 21.5779 22.2088C22.9314 22.2088 23.328 22.8722 24.5081 22.8471C25.7227 22.829 26.4879 21.8487 27.2177 20.8453C27.7611 20.137 28.1793 19.3542 28.4567 18.5259C27.0294 17.9711 26.0763 16.6509 26.0746 15.2265Z" fill="white"/>
<path d="M23.8456 9.15922C24.5078 8.42857 24.834 7.48943 24.755 6.54126C23.7433 6.63893 22.8088 7.08334 22.1376 7.78597C21.4813 8.47247 21.1398 9.39508 21.2044 10.307C22.2164 10.3166 23.2114 9.88422 23.8456 9.15922Z" fill="white"/>
<rect x="0.408" y="0.408977" width="117.184" height="29.184" rx="2.856" stroke="#BFBFBF" stroke-width="0.816"/>
</svg>
