<svg width="118" height="30" viewBox="0 0 118 30" fill="none" xmlns="http://www.w3.org/2000/svg">
<rect x="0.408" y="0.408" width="117.184" height="29.184" rx="2.856" fill="black"/>
<path d="M72.3881 14.4008V16.119H71.2163V17.2459H72.3881V21.0746C72.3881 22.382 73.0316 22.9049 74.6504 22.9049C74.9349 22.9049 75.2058 22.8738 75.4429 22.8364V21.7221C75.2397 21.7407 75.111 21.7532 74.8875 21.7532C74.1627 21.7532 73.8444 21.4419 73.8444 20.7322V17.2459H75.4429V16.119H73.8444V14.4008H72.3881Z" fill="white"/>
<path d="M79.5668 22.9983C81.7208 22.9983 83.0416 21.6723 83.0416 19.4746C83.0416 17.2894 81.714 15.9572 79.5668 15.9572C77.4129 15.9572 76.0853 17.2894 76.0853 19.4746C76.0853 21.6723 77.4061 22.9983 79.5668 22.9983ZM79.5668 21.8092C78.3002 21.8092 77.589 20.9563 77.589 19.4746C77.589 18.0054 78.3002 17.1463 79.5668 17.1463C80.8267 17.1463 81.5447 18.0054 81.5447 19.4746C81.5447 20.9501 80.8267 21.8092 79.5668 21.8092Z" fill="white"/>
<path d="M84.1717 22.8676H85.628V18.8645C85.628 17.912 86.4069 17.2708 87.511 17.2708C87.7684 17.2708 88.2019 17.3143 88.3238 17.3517V16.0319C88.168 15.9945 87.8903 15.9758 87.6736 15.9758C86.7117 15.9758 85.8921 16.4614 85.6822 17.1276H85.5738V16.0879H84.1717V22.8676Z" fill="white"/>
<path d="M91.9397 17.0964C93.0167 17.0964 93.7212 17.7875 93.755 18.8521H90.0296C90.1109 17.7937 90.8628 17.0964 91.9397 17.0964ZM93.7482 21.0372C93.4773 21.5664 92.8745 21.859 91.9939 21.859C90.8289 21.859 90.077 21.1057 90.0296 19.9166V19.8419H95.2384V19.375C95.2384 17.2459 93.9989 15.9572 91.9465 15.9572C89.8671 15.9572 88.5462 17.333 88.5462 19.4995C88.5462 21.666 89.84 22.9983 91.9533 22.9983C93.6399 22.9983 94.8185 22.2512 95.1503 21.0372H93.7482Z" fill="white"/>
<path d="M62.838 20.3639C62.9503 22.0287 64.4597 23.0934 66.7062 23.0934C69.1072 23.0934 70.6096 21.9771 70.6096 20.1962C70.6096 18.7959 69.7531 18.0216 67.6751 17.5764L66.5588 17.3247C65.239 17.0408 64.7054 16.6601 64.7054 15.9955C64.7054 15.1567 65.5338 14.6082 66.7764 14.6082C67.9559 14.6082 68.7702 15.1438 68.9177 16.002H70.4481C70.3569 14.434 68.8545 13.3306 66.7975 13.3306C64.5861 13.3306 63.1118 14.434 63.1118 16.0923C63.1118 17.4603 63.9472 18.2733 65.7795 18.6669L67.0853 18.9573C68.4262 19.2476 69.016 19.6735 69.016 20.3833C69.016 21.2092 68.0893 21.8093 66.8256 21.8093C65.4706 21.8093 64.5299 21.248 64.3965 20.3639H62.838Z" fill="white"/>
<path d="M47.7523 15.9758C46.7498 15.9758 45.8828 16.4365 45.4358 17.2085H45.3274V16.0879H43.9253V25.1212H45.3816V21.8403H45.4967C45.8828 22.5563 46.716 22.9796 47.7658 22.9796C49.6285 22.9796 50.8139 21.6287 50.8139 19.4746C50.8139 17.3206 49.6285 15.9758 47.7523 15.9758ZM47.3391 21.7781C46.1199 21.7781 45.3545 20.8941 45.3545 19.4808C45.3545 18.0614 46.1199 17.1774 47.3459 17.1774C48.5786 17.1774 49.317 18.0427 49.317 19.4746C49.317 20.9127 48.5786 21.7781 47.3391 21.7781Z" fill="white"/>
<path d="M55.9097 15.9758C54.9072 15.9758 54.0402 16.4365 53.5932 17.2085H53.4848V16.0879H52.0827V25.1212H53.539V21.8403H53.6541C54.0402 22.5563 54.8733 22.9796 55.9232 22.9796C57.7859 22.9796 58.9713 21.6287 58.9713 19.4746C58.9713 17.3206 57.7859 15.9758 55.9097 15.9758ZM55.4965 21.7781C54.2773 21.7781 53.5119 20.8941 53.5119 19.4808C53.5119 18.0614 54.2773 17.1774 55.5033 17.1774C56.736 17.1774 57.4743 18.0427 57.4743 19.4746C57.4743 20.9127 56.736 21.7781 55.4965 21.7781Z" fill="white"/>
<path d="M41.3125 22.8676H42.9833L39.3257 13.5564H37.6337L33.9761 22.8676H35.5908L36.5245 20.3962H40.3858L41.3125 22.8676ZM38.399 15.247H38.5183L39.9856 19.1831H36.9247L38.399 15.247Z" fill="white"/>
<path d="M34.9543 6.53326V11.025H36.7188C38.1751 11.025 39.0184 10.2001 39.0184 8.76514C39.0184 7.35193 38.1683 6.53326 36.7188 6.53326H34.9543ZM35.713 7.16827H36.6342C37.6468 7.16827 38.2462 7.7597 38.2462 8.77448C38.2462 9.80481 37.6569 10.39 36.6342 10.39H35.713V7.16827Z" fill="white"/>
<path d="M41.6011 11.0904C42.6781 11.0904 43.3385 10.4274 43.3385 9.32855C43.3385 8.23596 42.6747 7.56982 41.6011 7.56982C40.5241 7.56982 39.8603 8.23596 39.8603 9.32855C39.8603 10.4274 40.5208 11.0904 41.6011 11.0904ZM41.6011 10.4958C40.9678 10.4958 40.6122 10.0694 40.6122 9.32855C40.6122 8.59393 40.9678 8.16437 41.6011 8.16437C42.231 8.16437 42.59 8.59393 42.59 9.32855C42.59 10.0663 42.231 10.4958 41.6011 10.4958Z" fill="white"/>
<path d="M48.9625 7.63519H48.2343L47.5773 10.2219H47.5197L46.7611 7.63519H46.0635L45.3048 10.2219H45.2506L44.5902 7.63519H43.8519L44.8679 11.025H45.6164L46.375 8.52856H46.4326L47.1946 11.025H47.9499L48.9625 7.63519Z" fill="white"/>
<path d="M49.801 11.025H50.5292V9.04218C50.5292 8.513 50.8712 8.18304 51.4097 8.18304C51.9482 8.18304 52.2056 8.45386 52.2056 8.9986V11.025H52.9338V8.83051C52.9338 8.02429 52.4799 7.56982 51.657 7.56982C51.1015 7.56982 50.7358 7.79706 50.5563 8.17371H50.5021V7.63519H49.801V11.025Z" fill="white"/>
<path d="M54.0805 11.025H54.8086V6.31226H54.0805V11.025Z" fill="white"/>
<path d="M57.5471 11.0904C58.6241 11.0904 59.2845 10.4274 59.2845 9.32855C59.2845 8.23596 58.6207 7.56982 57.5471 7.56982C56.4702 7.56982 55.8064 8.23596 55.8064 9.32855C55.8064 10.4274 56.4668 11.0904 57.5471 11.0904ZM57.5471 10.4958C56.9138 10.4958 56.5582 10.0694 56.5582 9.32855C56.5582 8.59393 56.9138 8.16437 57.5471 8.16437C58.1771 8.16437 58.5361 8.59393 58.5361 9.32855C58.5361 10.0663 58.1771 10.4958 57.5471 10.4958Z" fill="white"/>
<path d="M61.4541 10.5176C61.0578 10.5176 60.7699 10.3402 60.7699 10.0352C60.7699 9.73633 61.0002 9.57758 61.5082 9.54645L62.4091 9.49353V9.77679C62.4091 10.197 62.0027 10.5176 61.4541 10.5176ZM61.2678 11.0811C61.7521 11.0811 62.1551 10.8881 62.3752 10.5488H62.4328V11.025H63.1339V8.70911C63.1339 7.99316 62.6123 7.56982 61.6877 7.56982C60.8512 7.56982 60.2552 7.94336 60.1807 8.52545H60.8851C60.9664 8.28577 61.2475 8.1488 61.6539 8.1488C62.1517 8.1488 62.4091 8.35114 62.4091 8.70911V9.00171L61.41 9.05463C60.5329 9.10443 60.0384 9.45618 60.0384 10.0663C60.0384 10.6857 60.5566 11.0811 61.2678 11.0811Z" fill="white"/>
<path d="M65.6048 11.0811C66.1128 11.0811 66.5429 10.86 66.7631 10.4896H66.8207V11.025H67.5183V6.31226H66.7902V8.17371H66.736C66.5362 7.80017 66.1094 7.57916 65.6048 7.57916C64.6735 7.57916 64.074 8.25775 64.074 9.32855C64.074 10.4025 64.6667 11.0811 65.6048 11.0811ZM65.8114 8.17993C66.421 8.17993 66.8037 8.62506 66.8037 9.33167C66.8037 10.0414 66.4244 10.4803 65.8114 10.4803C65.195 10.4803 64.8259 10.0476 64.8259 9.32855C64.8259 8.61572 65.1984 8.17993 65.8114 8.17993Z" fill="white"/>
<path d="M72.2401 11.0904C73.3171 11.0904 73.9775 10.4274 73.9775 9.32855C73.9775 8.23596 73.3137 7.56982 72.2401 7.56982C71.1631 7.56982 70.4993 8.23596 70.4993 9.32855C70.4993 10.4274 71.1597 11.0904 72.2401 11.0904ZM72.2401 10.4958C71.6068 10.4958 71.2512 10.0694 71.2512 9.32855C71.2512 8.59393 71.6068 8.16437 72.2401 8.16437C72.87 8.16437 73.229 8.59393 73.229 9.32855C73.229 10.0663 72.87 10.4958 72.2401 10.4958Z" fill="white"/>
<path d="M74.9413 11.025H75.6695V9.04218C75.6695 8.513 76.0115 8.18304 76.55 8.18304C77.0885 8.18304 77.3459 8.45386 77.3459 8.9986V11.025H78.074V8.83051C78.074 8.02429 77.6202 7.56982 76.7973 7.56982C76.2418 7.56982 75.8761 7.79706 75.6966 8.17371H75.6424V7.63519H74.9413V11.025Z" fill="white"/>
<path d="M81.4276 6.79163V7.65076H80.8417V8.21417H81.4276V10.1285C81.4276 10.7822 81.7493 11.0437 82.5587 11.0437C82.701 11.0437 82.8364 11.0281 82.955 11.0095V10.4523C82.8534 10.4616 82.789 10.4678 82.6773 10.4678C82.3149 10.4678 82.1557 10.3122 82.1557 9.95734V8.21417H82.955V7.65076H82.1557V6.79163H81.4276Z" fill="white"/>
<path d="M83.9324 11.025H84.6605V9.04529C84.6605 8.53168 84.9924 8.18616 85.5885 8.18616C86.1033 8.18616 86.3776 8.46008 86.3776 9.00171V11.025H87.1057V8.83673C87.1057 8.03052 86.6214 7.57294 85.8357 7.57294C85.2803 7.57294 84.8908 7.80017 84.7113 8.17993H84.6538V6.31226H83.9324V11.025Z" fill="white"/>
<path d="M89.7325 8.13947C90.271 8.13947 90.6232 8.48499 90.6401 9.01727H88.7774C88.8181 8.4881 89.194 8.13947 89.7325 8.13947ZM90.6367 10.1099C90.5013 10.3745 90.1999 10.5208 89.7596 10.5208C89.1771 10.5208 88.8011 10.1441 88.7774 9.54956V9.51221H91.3818V9.27875C91.3818 8.21417 90.762 7.56982 89.7359 7.56982C88.6961 7.56982 88.0357 8.25775 88.0357 9.341C88.0357 10.4243 88.6826 11.0904 89.7393 11.0904C90.5826 11.0904 91.1718 10.7169 91.3378 10.1099H90.6367Z" fill="white"/>
<path d="M26.0746 15.2256C26.0923 13.9648 26.8289 12.7719 27.9976 12.1115C27.2603 11.1438 26.0255 10.5302 24.7408 10.4932C23.3705 10.3611 22.0421 11.2469 21.3438 11.2469C20.6321 11.2469 19.557 10.5064 18.3993 10.5283C16.8903 10.5731 15.4836 11.3616 14.7494 12.5742C13.1713 15.0855 14.3484 18.7763 15.8601 20.8062C16.6165 21.8002 17.5005 22.9106 18.6571 22.8712C19.7889 22.8281 20.2117 22.2078 21.5779 22.2078C22.9314 22.2078 23.328 22.8712 24.5081 22.8462C25.7227 22.828 26.4879 21.8477 27.2177 20.8443C27.7611 20.136 28.1793 19.3533 28.4567 18.5249C27.0294 17.9701 26.0763 16.6499 26.0746 15.2256Z" fill="white"/>
<path d="M23.8456 9.15825C24.5078 8.42759 24.834 7.48846 24.755 6.54028C23.7433 6.63795 22.8088 7.08237 22.1376 7.78499C21.4813 8.47149 21.1398 9.3941 21.2044 10.306C22.2164 10.3156 23.2114 9.88324 23.8456 9.15825Z" fill="white"/>
<rect x="0.408" y="0.408" width="117.184" height="29.184" rx="2.856" stroke="#BFBFBF" stroke-width="0.816"/>
</svg>
