<svg width="118" height="30" viewBox="0 0 118 30" fill="none" xmlns="http://www.w3.org/2000/svg">
<rect x="0.408" y="0.408" width="117.184" height="29.184" rx="2.856" fill="black"/>
<path d="M59.461 16.3132C57.5418 16.3132 55.9775 17.6549 55.9775 19.5029C55.9775 21.3397 57.5418 22.6927 59.461 22.6927C61.381 22.6927 62.9453 21.3397 62.9453 19.5029C62.9445 17.6549 61.3802 16.3132 59.461 16.3132ZM59.461 21.4372C58.4092 21.4372 57.5026 20.6399 57.5026 19.5037C57.5026 18.3554 58.41 17.5702 59.461 17.5702C60.5128 17.5702 61.4194 18.3554 61.4194 19.5037C61.4194 20.6392 60.5128 21.4372 59.461 21.4372ZM51.8608 16.3132C49.9415 16.3132 48.3773 17.6549 48.3773 19.5029C48.3773 21.3397 49.9415 22.6927 51.8608 22.6927C53.7808 22.6927 55.3451 21.3397 55.3451 19.5029C55.3451 17.6549 53.7808 16.3132 51.8608 16.3132ZM51.8608 21.4372C50.8089 21.4372 49.9024 20.6399 49.9024 19.5037C49.9024 18.3554 50.8098 17.5702 51.8608 17.5702C52.9126 17.5702 53.8192 18.3554 53.8192 19.5037C53.82 20.6392 52.9126 21.4372 51.8608 21.4372ZM42.8211 17.2927V18.6457H46.3446C46.2394 19.4069 45.9635 19.9627 45.5425 20.3489C45.03 20.8199 44.2279 21.3397 42.8211 21.3397C40.6522 21.3397 38.9566 19.7324 38.9566 17.7389C38.9566 15.7454 40.6522 14.1382 42.8211 14.1382C43.9913 14.1382 44.8456 14.5612 45.4764 15.1049L46.5152 14.1502C45.6339 13.3769 44.4646 12.7852 42.8211 12.7852C39.8501 12.7852 37.3523 15.0082 37.3523 17.7389C37.3523 20.4697 39.8501 22.6927 42.8211 22.6927C44.4246 22.6927 45.6347 22.2089 46.5804 21.3029C47.5531 20.4089 47.8558 19.1519 47.8558 18.1372C47.8558 17.8237 47.8297 17.5334 47.7767 17.2919H42.8211V17.2927ZM79.7925 18.3434C79.5036 17.6309 78.6223 16.3132 76.8214 16.3132C75.0335 16.3132 73.5476 17.6062 73.5476 19.5029C73.5476 21.2909 75.0205 22.6927 76.9919 22.6927C78.5823 22.6927 79.5028 21.7987 79.8847 21.2789L78.7015 20.5537C78.3073 21.0854 77.768 21.4357 76.9919 21.4357C76.2167 21.4357 75.6643 21.1094 75.3093 20.4689L79.9499 18.7049L79.7925 18.3434ZM75.0597 19.4069C75.0205 18.1739 76.0984 17.5462 76.8744 17.5462C77.4791 17.5462 77.9915 17.8244 78.1629 18.2227L75.0597 19.4069ZM71.2873 22.4999H72.8116V13.1242H71.2873V22.4999ZM68.7887 17.0264H68.7365C68.3946 16.6514 67.7369 16.3132 66.9094 16.3132C65.1738 16.3132 63.5834 17.7149 63.5834 19.5157C63.5834 21.3037 65.1738 22.6934 66.9094 22.6934C67.7377 22.6934 68.3946 22.3552 68.7365 21.9689H68.7887V22.4279C68.7887 23.6482 68.0788 24.3007 66.9356 24.3007C66.0021 24.3007 65.4235 23.6849 65.1869 23.1652L63.8592 23.6729C64.2403 24.5182 65.2521 25.5577 66.9356 25.5577C68.7234 25.5577 70.2355 24.5909 70.2355 22.2344V16.5074H68.7895V17.0264H68.7887ZM67.0408 21.4372C65.989 21.4372 65.1085 20.6272 65.1085 19.5157C65.1085 18.3914 65.989 17.5702 67.0408 17.5702C68.0788 17.5702 68.894 18.3914 68.894 19.5157C68.894 20.6272 68.0788 21.4372 67.0408 21.4372ZM86.9357 13.1242H83.2874V22.4999H84.8092V18.9479H86.9349C88.6224 18.9479 90.2821 17.8252 90.2821 16.0364C90.2821 14.2477 88.6232 13.1242 86.9357 13.1242ZM86.9749 17.6429H84.8092V14.4292H86.9749C88.1132 14.4292 88.7595 15.2954 88.7595 16.0364C88.7595 16.7624 88.1132 17.6429 86.9749 17.6429ZM96.385 16.2967C95.2826 16.2967 94.141 16.7429 93.6685 17.7322L95.0198 18.2504C95.3087 17.7322 95.8473 17.5627 96.4111 17.5627C97.1986 17.5627 97.999 17.9969 98.0121 18.7687V18.8654C97.7363 18.7207 97.1455 18.5039 96.4242 18.5039C94.9676 18.5039 93.4841 19.2397 93.4841 20.6144C93.4841 21.8692 94.6787 22.6769 96.017 22.6769C97.0402 22.6769 97.6049 22.2547 97.9591 21.7597H98.0113V22.4834H99.4817V18.8887C99.4825 17.2252 98.1296 16.2967 96.385 16.2967ZM96.2006 21.4349C95.7028 21.4349 95.0068 21.2054 95.0068 20.6384C95.0068 19.9147 95.8734 19.6372 96.6216 19.6372C97.2899 19.6372 97.6057 19.7699 98.0121 19.9507C97.8938 20.8199 97.0802 21.4349 96.2006 21.4349ZM104.836 16.5014L103.091 20.5664H103.039L101.227 16.5014H99.587L102.303 22.1827L100.755 25.3432H102.343L106.53 16.5014H104.836ZM91.1226 22.4999H92.6445V13.1242H91.1226V22.4999Z" fill="white"/>
<path d="M42.5551 7.68239C42.5551 8.31089 42.3527 8.81114 41.9472 9.18464C41.4869 9.62864 40.8864 9.85064 40.1487 9.85064C39.442 9.85064 38.8406 9.62564 38.347 9.17564C37.8525 8.72489 37.6052 8.16689 37.6052 7.50089C37.6052 6.83414 37.8525 6.27614 38.347 5.82614C38.8406 5.37539 39.442 5.15039 40.1487 5.15039C40.4996 5.15039 40.835 5.21339 41.1532 5.33864C41.4722 5.46464 41.7277 5.63189 41.9186 5.84114L41.4886 6.23714C41.1646 5.88089 40.7183 5.70314 40.1479 5.70314C39.6322 5.70314 39.1866 5.86964 38.8105 6.20264C38.4343 6.53564 38.2466 6.96839 38.2466 7.50014C38.2466 8.03189 38.4343 8.46464 38.8105 8.79764C39.1866 9.13064 39.6322 9.29714 40.1479 9.29714C40.6946 9.29714 41.1507 9.12989 41.5155 8.79464C41.7521 8.57639 41.8892 8.27264 41.9259 7.88339H40.1479V7.34264H42.52C42.5445 7.46039 42.5551 7.57364 42.5551 7.68239Z" fill="white"/>
<path d="M46.3169 5.80293H44.0876V7.22943H46.0982V7.77018H44.0876V9.19668H46.3169V9.75018H43.4585V5.25018H46.3169V5.80293Z" fill="white"/>
<path d="M48.9696 9.75018H48.3405V5.80293H46.9729V5.25018H50.3373V5.80293H48.9696V9.75018Z" fill="white"/>
<path d="M52.7714 9.75018V5.25018H53.4005V9.75018H52.7714Z" fill="white"/>
<path d="M56.1905 9.75018H55.5614V5.80293H54.1938V5.25018H57.5581V5.80293H56.1905V9.75018Z" fill="white"/>
<path d="M63.9268 9.16893C63.4454 9.62343 62.8473 9.85068 62.1316 9.85068C61.416 9.85068 60.8179 9.62343 60.3373 9.16893C59.8558 8.71443 59.6159 8.15793 59.6159 7.50018C59.6159 6.84243 59.8558 6.28593 60.3373 5.83143C60.8179 5.37693 61.416 5.14893 62.1316 5.14893C62.8432 5.14893 63.4405 5.37768 63.9236 5.83443C64.4066 6.29118 64.6482 6.84618 64.6482 7.50018C64.6482 8.15793 64.4075 8.71443 63.9268 9.16893ZM60.8016 8.79168C61.1639 9.12918 61.6069 9.29718 62.1316 9.29718C62.6563 9.29718 63.1002 9.12843 63.4617 8.79168C63.824 8.45418 64.006 8.02368 64.006 7.50018C64.006 6.97668 63.824 6.54618 63.4617 6.20868C63.1002 5.87118 62.6563 5.70318 62.1316 5.70318C61.6069 5.70318 61.1639 5.87193 60.8016 6.20868C60.4401 6.54618 60.2581 6.97668 60.2581 7.50018C60.2581 8.02368 60.4401 8.45418 60.8016 8.79168Z" fill="white"/>
<path d="M65.5311 9.75018V5.25018H66.2965L68.676 8.75043H68.7029L68.676 7.88343V5.25018H69.3051V9.75018H68.6482L66.1586 6.07968H66.1317L66.1586 6.94668V9.75018H65.5311Z" fill="white"/>
<path d="M42.5551 7.68239C42.5551 8.31089 42.3527 8.81114 41.9472 9.18464C41.4869 9.62864 40.8864 9.85064 40.1487 9.85064C39.442 9.85064 38.8406 9.62564 38.347 9.17564C37.8525 8.72489 37.6052 8.16689 37.6052 7.50089C37.6052 6.83414 37.8525 6.27614 38.347 5.82614C38.8406 5.37539 39.442 5.15039 40.1487 5.15039C40.4996 5.15039 40.835 5.21339 41.1532 5.33864C41.4722 5.46464 41.7277 5.63189 41.9186 5.84114L41.4886 6.23714C41.1646 5.88089 40.7183 5.70314 40.1479 5.70314C39.6322 5.70314 39.1866 5.86964 38.8105 6.20264C38.4343 6.53564 38.2466 6.96839 38.2466 7.50014C38.2466 8.03189 38.4343 8.46464 38.8105 8.79764C39.1866 9.13064 39.6322 9.29714 40.1479 9.29714C40.6946 9.29714 41.1507 9.12989 41.5155 8.79464C41.7521 8.57639 41.8892 8.27264 41.9259 7.88339H40.1479V7.34264H42.52C42.5445 7.46039 42.5551 7.57364 42.5551 7.68239Z" stroke="white" stroke-width="0.1632" stroke-miterlimit="10"/>
<path d="M46.3169 5.80293H44.0876V7.22943H46.0982V7.77018H44.0876V9.19668H46.3169V9.75018H43.4585V5.25018H46.3169V5.80293Z" stroke="white" stroke-width="0.1632" stroke-miterlimit="10"/>
<path d="M48.9696 9.75018H48.3405V5.80293H46.9729V5.25018H50.3373V5.80293H48.9696V9.75018Z" stroke="white" stroke-width="0.1632" stroke-miterlimit="10"/>
<path d="M52.7714 9.75018V5.25018H53.4005V9.75018H52.7714Z" stroke="white" stroke-width="0.1632" stroke-miterlimit="10"/>
<path d="M56.1905 9.75018H55.5614V5.80293H54.1938V5.25018H57.5581V5.80293H56.1905V9.75018Z" stroke="white" stroke-width="0.1632" stroke-miterlimit="10"/>
<path d="M63.9268 9.16893C63.4454 9.62343 62.8473 9.85068 62.1316 9.85068C61.416 9.85068 60.8179 9.62343 60.3373 9.16893C59.8558 8.71443 59.6159 8.15793 59.6159 7.50018C59.6159 6.84243 59.8558 6.28593 60.3373 5.83143C60.8179 5.37693 61.416 5.14893 62.1316 5.14893C62.8432 5.14893 63.4405 5.37768 63.9236 5.83443C64.4066 6.29118 64.6482 6.84618 64.6482 7.50018C64.6482 8.15793 64.4075 8.71443 63.9268 9.16893ZM60.8016 8.79168C61.1639 9.12918 61.6069 9.29718 62.1316 9.29718C62.6563 9.29718 63.1002 9.12843 63.4617 8.79168C63.824 8.45418 64.006 8.02368 64.006 7.50018C64.006 6.97668 63.824 6.54618 63.4617 6.20868C63.1002 5.87118 62.6563 5.70318 62.1316 5.70318C61.6069 5.70318 61.1639 5.87193 60.8016 6.20868C60.4401 6.54618 60.2581 6.97668 60.2581 7.50018C60.2581 8.02368 60.4401 8.45418 60.8016 8.79168Z" stroke="white" stroke-width="0.1632" stroke-miterlimit="10"/>
<path d="M65.5311 9.75018V5.25018H66.2965L68.676 8.75043H68.7029L68.676 7.88343V5.25018H69.3051V9.75018H68.6482L66.1586 6.07968H66.1317L66.1586 6.94668V9.75018H65.5311Z" stroke="white" stroke-width="0.1632" stroke-miterlimit="10"/>
<g filter="url(#filter0_ii_243_203)">
<path d="M12.3778 5.6535C12.1404 5.8845 12 6.24301 12 6.70726V23.2943C12 23.7593 12.1404 24.117 12.3778 24.348L12.4382 24.402L22.5476 15.1103V15.0008V14.8913L12.4382 5.59875L12.3778 5.6535Z" fill="url(#paint0_linear_243_203)"/>
<path d="M25.9169 18.2086L22.5476 15.1103V15.0008V14.8913L25.9177 11.7938L25.9936 11.8336L29.9863 13.9186C31.1262 14.5141 31.1262 15.4883 29.9863 16.0846L25.9936 18.1696L25.9169 18.2086Z" fill="url(#paint1_linear_243_203)"/>
<g filter="url(#filter1_i_243_203)">
<path d="M25.9935 18.1689L22.5467 15.0009L12.3777 24.3481C12.7531 24.7141 13.3741 24.7591 14.0734 24.3946L25.9935 18.1689Z" fill="url(#paint2_linear_243_203)"/>
</g>
<path d="M25.9935 11.8328L14.0734 5.60777C13.3741 5.24252 12.7531 5.28827 12.3777 5.65427L22.5475 15.0015L25.9935 11.8328Z" fill="url(#paint3_linear_243_203)"/>
</g>
<rect x="0.408" y="0.408" width="117.184" height="29.184" rx="2.856" stroke="#BFBFBF" stroke-width="0.816"/>
<defs>
<filter id="filter0_ii_243_203" x="12" y="5.35571" width="18.8412" height="19.2906" filterUnits="userSpaceOnUse" color-interpolation-filters="sRGB">
<feFlood flood-opacity="0" result="BackgroundImageFix"/>
<feBlend mode="normal" in="SourceGraphic" in2="BackgroundImageFix" result="shape"/>
<feColorMatrix in="SourceAlpha" type="matrix" values="0 0 0 0 0 0 0 0 0 0 0 0 0 0 0 0 0 0 127 0" result="hardAlpha"/>
<feOffset dy="-0.1224"/>
<feComposite in2="hardAlpha" operator="arithmetic" k2="-1" k3="1"/>
<feColorMatrix type="matrix" values="0 0 0 0 0 0 0 0 0 0 0 0 0 0 0 0 0 0 0.12 0"/>
<feBlend mode="normal" in2="shape" result="effect1_innerShadow_243_203"/>
<feColorMatrix in="SourceAlpha" type="matrix" values="0 0 0 0 0 0 0 0 0 0 0 0 0 0 0 0 0 0 127 0" result="hardAlpha"/>
<feOffset dy="0.1224"/>
<feComposite in2="hardAlpha" operator="arithmetic" k2="-1" k3="1"/>
<feColorMatrix type="matrix" values="0 0 0 0 1 0 0 0 0 1 0 0 0 0 1 0 0 0 0.25 0"/>
<feBlend mode="normal" in2="effect1_innerShadow_243_203" result="effect2_innerShadow_243_203"/>
</filter>
<filter id="filter1_i_243_203" x="12.3777" y="15.0009" width="13.6158" height="9.64551" filterUnits="userSpaceOnUse" color-interpolation-filters="sRGB">
<feFlood flood-opacity="0" result="BackgroundImageFix"/>
<feBlend mode="normal" in="SourceGraphic" in2="BackgroundImageFix" result="shape"/>
<feColorMatrix in="SourceAlpha" type="matrix" values="0 0 0 0 0 0 0 0 0 0 0 0 0 0 0 0 0 0 127 0" result="hardAlpha"/>
<feOffset dy="-0.1224"/>
<feComposite in2="hardAlpha" operator="arithmetic" k2="-1" k3="1"/>
<feColorMatrix type="matrix" values="0 0 0 0 0 0 0 0 0 0 0 0 0 0 0 0 0 0 0.08 0"/>
<feBlend mode="normal" in2="shape" result="effect1_innerShadow_243_203"/>
</filter>
<linearGradient id="paint0_linear_243_203" x1="21.6515" y1="6.53175" x2="9.10962" y2="20.1773" gradientUnits="userSpaceOnUse">
<stop stop-color="#00A0FF"/>
<stop offset="0.0066" stop-color="#00A1FF"/>
<stop offset="0.2601" stop-color="#00BEFF"/>
<stop offset="0.5122" stop-color="#00D2FF"/>
<stop offset="0.7604" stop-color="#00DFFF"/>
<stop offset="1" stop-color="#00E3FF"/>
</linearGradient>
<linearGradient id="paint1_linear_243_203" x1="31.4702" y1="15.0008" x2="11.7263" y2="15.0008" gradientUnits="userSpaceOnUse">
<stop stop-color="#FFE000"/>
<stop offset="0.4087" stop-color="#FFBD00"/>
<stop offset="0.7754" stop-color="#FFA500"/>
<stop offset="1" stop-color="#FF9C00"/>
</linearGradient>
<linearGradient id="paint2_linear_243_203" x1="24.1217" y1="16.7213" x2="7.11333" y2="35.2264" gradientUnits="userSpaceOnUse">
<stop stop-color="#FF3A44"/>
<stop offset="1" stop-color="#C31162"/>
</linearGradient>
<linearGradient id="paint3_linear_243_203" x1="9.81662" y1="0.13262" x2="17.4113" y2="8.39565" gradientUnits="userSpaceOnUse">
<stop stop-color="#32A071"/>
<stop offset="0.0685" stop-color="#2DA771"/>
<stop offset="0.4762" stop-color="#15CF74"/>
<stop offset="0.8009" stop-color="#06E775"/>
<stop offset="1" stop-color="#00F076"/>
</linearGradient>
</defs>
</svg>
