<svg width="140" height="38" viewBox="0 0 140 38" fill="none" xmlns="http://www.w3.org/2000/svg">
<g clip-path="url(#clip0_243_182)">
<path d="M17.7243 27.7682V30.8356C17.7243 31.5075 17.4975 31.9281 16.6317 31.9281H1.09257C0.232172 31.9281 0 31.5157 0 30.8356V8.39958C0 7.54191 0.412446 7.30701 1.09257 7.30701H4.78547C5.46013 7.30701 5.87804 7.53372 5.87804 8.39958V26.6838H16.6399C17.4975 26.6838 17.7243 27.0962 17.7243 27.7682Z" fill="#43419E"/>
<path d="M40.6109 27.7682V30.8356C40.6109 31.5075 40.387 31.9281 39.5184 31.9281H22.7747C21.9143 31.9281 21.6821 31.5157 21.6821 30.8356V8.39958C21.6821 7.72765 21.9061 7.30701 22.7747 7.30701H38.8901C39.7505 7.30701 39.9827 7.71945 39.9827 8.39958V11.5052C39.9827 12.1771 39.7587 12.5978 38.8901 12.5978H27.5875V16.6731H37.6091C38.4695 16.6731 38.7017 17.0828 38.7017 17.7657V20.6637C38.7017 21.3384 38.4777 21.7563 37.6091 21.7563H27.5875V26.6838H39.5156C40.387 26.6838 40.6109 27.0962 40.6109 27.7682Z" fill="#EB7E5A"/>
<path d="M65.5052 8.39958L57.5021 30.7973C57.0541 31.7697 56.7919 31.9199 55.9698 31.9199H52.3807C51.5612 31.9199 51.2881 31.7697 50.8483 30.7973L42.8097 8.39958C42.6213 7.91338 42.7715 7.30701 43.4817 7.30701H47.6307C48.6031 7.30701 48.8653 7.60746 49.1658 8.50337L54.249 23.9933L59.2966 8.51157C59.5971 7.61566 59.8593 7.3152 60.8672 7.3152H64.8305C65.5544 7.3152 65.6909 7.91338 65.5052 8.39958Z" fill="#43419E"/>
<path d="M87.8319 27.7682V30.8356C87.8319 31.5075 87.6079 31.9281 86.7393 31.9281H69.9957C69.1353 31.9281 68.9031 31.5157 68.9031 30.8356V8.39958C68.9031 7.72765 69.1271 7.30701 69.9957 7.30701H86.1111C86.9715 7.30701 87.2037 7.71945 87.2037 8.39958V11.5052C87.2037 12.1771 86.9797 12.5978 86.1111 12.5978H74.8194V16.6731H84.841C85.6986 16.6731 85.9335 17.0828 85.9335 17.7657V20.6637C85.9335 21.3384 85.7068 21.7563 84.841 21.7563H74.8194V26.6838H86.7475C87.6079 26.6838 87.8319 27.0962 87.8319 27.7682Z" fill="#EB7E5A"/>
<path d="M111.169 31.9199H106.755C105.859 31.9199 105.411 31.5812 104.887 30.7973L100.85 24.7881C100.511 24.3402 100.437 23.9277 100.437 22.8761V19.8798C100.437 19.2051 100.661 18.7872 101.53 18.7872H102.278C104.111 18.7872 105.829 17.5143 105.829 15.758C105.829 13.8133 104.335 12.5814 102.39 12.5814H97.4083V30.8273C97.4083 31.6877 96.9986 31.9199 96.3158 31.9199H92.6229C91.9509 31.9199 91.5767 31.6959 91.5767 30.8273V8.42961C91.5767 7.75768 91.7625 7.33704 92.6229 7.33704H102.046C106.122 7.33704 107.916 8.15647 109.487 9.72977C110.869 11.0764 111.655 13.2069 111.655 15.5996C111.655 19.5274 108.777 22.2561 106.466 23.04L111.737 30.7072C112.065 31.2453 111.879 31.9199 111.169 31.9199Z" fill="#43419E"/>
<path d="M132.414 31.4747L126.971 26.031C126.769 25.8303 126.497 25.7176 126.213 25.7176C125.928 25.7176 125.656 25.8303 125.455 26.031L120.011 31.4747C119.81 31.6754 119.537 31.788 119.253 31.788C118.969 31.788 118.696 31.6754 118.495 31.4747L116.534 29.5108C116.333 29.3091 116.22 29.0361 116.22 28.7515C116.22 28.4669 116.333 28.1938 116.534 27.9921L123.362 21.1636C124.09 20.4251 125.072 19.9914 126.107 19.9508C126.64 19.9356 127.17 20.0296 127.665 20.2269C128.161 20.4242 128.61 20.7206 128.986 21.098L135.891 28.0031C136.092 28.2047 136.205 28.4778 136.205 28.7624C136.205 29.047 136.092 29.32 135.891 29.5217L133.93 31.4802C133.728 31.6801 133.455 31.7918 133.171 31.7908C132.887 31.7898 132.615 31.6761 132.414 31.4747Z" fill="#EB7E5A"/>
<path d="M132.414 18.3693L126.971 12.9256C126.769 12.7249 126.497 12.6123 126.213 12.6123C125.928 12.6123 125.656 12.7249 125.455 12.9256L120.011 18.3693C119.81 18.57 119.537 18.6827 119.253 18.6827C118.969 18.6827 118.696 18.57 118.495 18.3693L116.534 16.4C116.333 16.1988 116.22 15.9262 116.22 15.642C116.22 15.3578 116.333 15.0853 116.534 14.884L123.442 7.98717C124.177 7.25311 125.174 6.84082 126.213 6.84082C127.252 6.84082 128.248 7.25311 128.984 7.98717L135.891 14.895C136.092 15.0962 136.205 15.3688 136.205 15.6529C136.205 15.9371 136.092 16.2097 135.891 16.4109L133.93 18.3721C133.729 18.5724 133.456 18.6846 133.172 18.684C132.888 18.6835 132.615 18.5704 132.414 18.3693Z" fill="#EB7E5A"/>
</g>
<defs>
<clipPath id="clip0_243_182">
<rect width="136.206" height="25.08" fill="white" transform="translate(0 6.83997)"/>
</clipPath>
</defs>
</svg>
