<svg width="121" height="30" viewBox="0 0 121 30" fill="none" xmlns="http://www.w3.org/2000/svg">
<g clip-path="url(#clip0_206_46540)">
<path d="M14.4928 21.9223V24.344C14.4928 24.8744 14.3139 25.2065 13.6303 25.2065H1.36256C0.683293 25.2065 0.5 24.8809 0.5 24.344V6.63136C0.5 5.95425 0.825615 5.7688 1.36256 5.7688H4.278C4.81063 5.7688 5.14056 5.94778 5.14056 6.63136V21.0662H13.6367C14.3139 21.0662 14.4928 21.3919 14.4928 21.9223Z" fill="#43419E"/>
<path d="M32.5612 21.9223V24.344C32.5612 24.8744 32.3844 25.2065 31.6987 25.2065H18.48C17.8007 25.2065 17.6174 24.8809 17.6174 24.344V6.63136C17.6174 6.10088 17.7943 5.7688 18.48 5.7688H31.2027C31.882 5.7688 32.0653 6.09441 32.0653 6.63136V9.08317C32.0653 9.61365 31.8884 9.94573 31.2027 9.94573H22.2796V13.1631H30.1914C30.8706 13.1631 31.0539 13.4865 31.0539 14.0256V16.3136C31.0539 16.8462 30.8771 17.1761 30.1914 17.1761H22.2796V21.0662H31.6965C32.3844 21.0662 32.5612 21.3919 32.5612 21.9223Z" fill="#EB7E5A"/>
<path d="M52.2146 6.63136L45.8964 24.3138C45.5428 25.0815 45.3358 25.2001 44.6867 25.2001H41.8532C41.2063 25.2001 40.9906 25.0815 40.6434 24.3138L34.2972 6.63136C34.1484 6.24752 34.267 5.7688 34.8276 5.7688H38.1032C38.8709 5.7688 39.0779 6.006 39.3151 6.7133L43.3281 18.9422L47.3132 6.71977C47.5504 6.01247 47.7574 5.77527 48.5531 5.77527H51.682C52.2535 5.77527 52.3613 6.24752 52.2146 6.63136Z" fill="#43419E"/>
<path d="M69.8409 21.9223V24.344C69.8409 24.8744 69.6641 25.2065 68.9783 25.2065H55.7597C55.0804 25.2065 54.8971 24.8809 54.8971 24.344V6.63136C54.8971 6.10088 55.0739 5.7688 55.7597 5.7688H68.4824C69.1616 5.7688 69.3449 6.09441 69.3449 6.63136V9.08317C69.3449 9.61365 69.1681 9.94573 68.4824 9.94573H59.5678V13.1631H67.4796C68.1568 13.1631 68.3422 13.4865 68.3422 14.0256V16.3136C68.3422 16.8462 68.1632 17.1761 67.4796 17.1761H59.5678V21.0662H68.9848C69.6641 21.0662 69.8409 21.3919 69.8409 21.9223Z" fill="#EB7E5A"/>
<path d="M88.2652 25.2H84.7804C84.0731 25.2 83.7195 24.9326 83.3055 24.3137L80.1183 19.5697C79.8509 19.216 79.7927 18.8904 79.7927 18.0602V15.6946C79.7927 15.162 79.9695 14.8321 80.6553 14.8321H81.2461C82.6931 14.8321 84.0494 13.8272 84.0494 12.4406C84.0494 10.9053 82.8699 9.93275 81.3345 9.93275H77.4013V24.3375C77.4013 25.0167 77.0778 25.2 76.5387 25.2H73.6233C73.0928 25.2 72.7974 25.0232 72.7974 24.3375V6.65504C72.7974 6.12456 72.944 5.79248 73.6233 5.79248H81.0628C84.2802 5.79248 85.6969 6.4394 86.9368 7.68148C88.028 8.74458 88.649 10.4266 88.649 12.3156C88.649 15.4165 86.3762 17.5707 84.5519 18.1896L88.7137 24.2426C88.9725 24.6674 88.8258 25.2 88.2652 25.2Z" fill="#43419E"/>
<path d="M105.038 24.8486L100.74 20.5509C100.581 20.3925 100.366 20.3035 100.142 20.3035C99.9172 20.3035 99.702 20.3925 99.5431 20.5509L95.2455 24.8486C95.0866 25.007 94.8714 25.096 94.6471 25.096C94.4227 25.096 94.2075 25.007 94.0487 24.8486L92.5004 23.2981C92.3418 23.1389 92.2528 22.9234 92.2528 22.6987C92.2528 22.474 92.3418 22.2584 92.5004 22.0992L97.8914 16.7082C98.4658 16.1252 99.2407 15.7828 100.059 15.7508C100.479 15.7388 100.898 15.813 101.289 15.9687C101.679 16.1245 102.034 16.3585 102.331 16.6564L107.783 22.1078C107.941 22.267 108.03 22.4826 108.03 22.7073C108.03 22.932 107.941 23.1475 107.783 23.3068L106.234 24.8529C106.075 25.0107 105.859 25.0989 105.635 25.0981C105.411 25.0973 105.196 25.0076 105.038 24.8486Z" fill="#EB7E5A"/>
<path d="M105.038 14.5021L100.74 10.2044C100.581 10.046 100.366 9.95704 100.141 9.95704C99.9171 9.95704 99.7019 10.046 99.5431 10.2044L95.2454 14.5021C95.0865 14.6605 94.8713 14.7495 94.647 14.7495C94.4226 14.7495 94.2075 14.6605 94.0486 14.5021L92.5003 12.9473C92.3419 12.7885 92.2529 12.5733 92.2529 12.3489C92.2529 12.1246 92.3419 11.9094 92.5003 11.7505L97.9538 6.30565C98.5344 5.72612 99.3212 5.40063 100.141 5.40063C100.962 5.40063 101.749 5.72612 102.329 6.30565L107.783 11.7592C107.941 11.918 108.03 12.1332 108.03 12.3576C108.03 12.5819 107.941 12.7971 107.783 12.956L106.234 14.5043C106.075 14.6624 105.86 14.751 105.636 14.7505C105.411 14.7501 105.196 14.6608 105.038 14.5021Z" fill="#EB7E5A"/>
</g>
<defs>
<clipPath id="clip0_206_46540">
<rect width="107.531" height="19.8" fill="white" transform="translate(0.5 5.3999)"/>
</clipPath>
</defs>
</svg>
