<svg width="132" height="32" viewBox="0 0 132 32" fill="none" xmlns="http://www.w3.org/2000/svg">
<path d="M4.62318 16.6692C4.22275 16.6692 3.89513 16.3366 3.89513 15.9301C3.89513 13.2696 4.76879 10.7939 6.3705 8.68764C7.17136 7.65299 8.11783 6.80311 9.2099 6.10103C9.53753 5.87932 9.97436 5.99018 10.1928 6.32274C10.4112 6.6553 10.302 7.09872 9.97436 7.32043C9.02789 7.94861 8.19063 8.68764 7.49899 9.61143C6.07928 11.4221 5.35123 13.6022 5.35123 15.9301C5.35123 16.3366 5.02361 16.6692 4.62318 16.6692ZM12.923 6.06409C12.5954 6.06409 12.3041 5.84238 12.2313 5.50981C12.1585 5.10334 12.377 4.73383 12.7774 4.62297C13.6146 4.40126 14.5247 4.32736 15.3983 4.32736C15.7988 4.32736 16.1264 4.65993 16.1264 5.06639C16.1264 5.47286 15.7988 5.80542 15.3983 5.80542C14.6339 5.80542 13.833 5.87932 13.105 6.06409C13.0322 6.02713 12.9593 6.06409 12.923 6.06409Z" fill="#263C8F"/>
<path d="M15.7623 1.47904C18.8565 1.47904 21.7688 2.47673 24.2442 4.3243C26.2827 5.83931 27.848 7.8347 28.8672 10.1626L22.2784 12.3428C20.9679 9.97787 18.5289 8.46286 15.7623 8.46286C11.6488 8.42594 8.29981 11.8254 8.29981 16.001C8.29981 20.1765 11.6488 23.576 15.7623 23.576C18.4925 23.576 20.9679 22.061 22.2784 19.6961L28.8672 21.8762C27.8844 24.2042 26.2827 26.1996 24.2442 27.7146C21.7688 29.5622 18.8201 30.5599 15.7623 30.5599C7.86294 30.5229 1.4561 24.0195 1.4561 16.001C1.4561 7.98248 7.86294 1.47904 15.7623 1.47904ZM15.7623 0.000976562C7.06209 0.000976562 0 7.16955 0 16.001C0 24.8324 7.06209 32.001 15.7623 32.001C22.7516 32.001 28.6852 27.3451 30.7602 20.9525L21.4775 17.8855C20.7131 20.3243 18.4197 22.098 15.7623 22.098C12.4497 22.098 9.75587 19.3635 9.75587 16.001C9.75587 12.6384 12.4497 9.90395 15.7623 9.90395C18.4197 9.90395 20.7131 11.6776 21.4775 14.1164L30.7602 11.0495C28.6852 4.65687 22.7516 0.000976562 15.7623 0.000976562Z" fill="#263C8F"/>
<path d="M35.1648 12.9319C35.3833 13.9296 35.4925 14.9642 35.4925 15.9989C35.4925 17.0335 35.3833 18.0682 35.1648 19.0659L27.3383 16.4792L25.8458 15.9989L27.3019 15.5185L35.1648 12.9319ZM36.1477 11.0474L26.8651 14.1143L21.1499 15.9989L26.8651 17.8834L36.1477 20.9503C36.6573 19.3984 36.9122 17.7356 36.9122 15.9989C36.9122 14.2621 36.6573 12.5993 36.1477 11.0474Z" fill="#43B5C3"/>
<path d="M47.2629 9.40901C48.9207 9.40901 50.225 9.81114 51.1758 10.6154C52.1265 11.4197 52.6019 12.5271 52.6019 13.9376C52.6019 15.3482 52.1265 16.4556 51.1758 17.2599C50.225 18.0642 48.9207 18.4663 47.2629 18.4663H44.0997V22.401H42.2713V9.40901H47.2629ZM47.2081 16.8516C48.3661 16.8516 49.2498 16.6041 49.8593 16.1092C50.4688 15.6018 50.7735 14.878 50.7735 13.9376C50.7735 12.9973 50.4688 12.2796 49.8593 11.7847C49.2498 11.2774 48.3661 11.0237 47.2081 11.0237H44.0997V16.8516H47.2081ZM62.8001 19.153H55.9984L54.5905 22.401H52.7072L58.5033 9.40901H60.3135L66.1279 22.401H64.208L62.8001 19.153ZM62.1602 17.6682L59.3993 11.3021L56.6383 17.6682H62.1602ZM79.0443 9.40901V22.401H77.545L69.8656 12.7127V22.401H68.0371V9.40901H69.5365L77.2159 19.0973V9.40901H79.0443ZM88.5983 22.5495C87.3184 22.5495 86.1603 22.2649 85.1243 21.6957C84.1003 21.1142 83.2958 20.3223 82.7107 19.32C82.1256 18.3055 81.8331 17.1671 81.8331 15.905C81.8331 14.6429 82.1256 13.5108 82.7107 12.5085C83.2958 11.4939 84.1064 10.702 85.1425 10.1328C86.1786 9.5513 87.3367 9.26053 88.6166 9.26053C89.6161 9.26053 90.5303 9.43376 91.3592 9.78021C92.1881 10.1143 92.8951 10.6154 93.4802 11.2836L92.2917 12.4528C91.3287 11.4258 90.128 10.9124 88.6897 10.9124C87.7389 10.9124 86.8795 11.1289 86.1116 11.562C85.3437 11.9951 84.7403 12.5951 84.3015 13.3623C83.8748 14.117 83.6615 14.9647 83.6615 15.905C83.6615 16.8454 83.8748 17.6991 84.3015 18.4663C84.7403 19.221 85.3437 19.815 86.1116 20.248C86.8795 20.6811 87.7389 20.8976 88.6897 20.8976C90.1159 20.8976 91.3165 20.378 92.2917 19.3386L93.4802 20.5079C92.8951 21.176 92.182 21.6834 91.3409 22.0298C90.512 22.3762 89.5978 22.5495 88.5983 22.5495ZM103.94 19.153H97.138L95.7302 22.401H93.8469L99.643 9.40901H101.453L107.268 22.401H105.348L103.94 19.153ZM103.3 17.6682L100.539 11.3021L97.778 17.6682H103.3ZM113.345 16.6288L111.005 19.0416V22.401H109.177V9.40901H111.005V16.666L117.953 9.40901H120.038L114.571 15.2554L120.385 22.401H118.246L113.345 16.6288ZM131.607 20.7863V22.401H122.319V9.40901H131.351V11.0237H124.147V15.0141H130.565V16.5917H124.147V20.7863H131.607Z" fill="#263C8F"/>
</svg>
