<svg width="99" height="24" viewBox="0 0 99 24" fill="none" xmlns="http://www.w3.org/2000/svg">
<path d="M3.47204 12.5012C3.17132 12.5012 2.92528 12.2517 2.92528 11.9469C2.92528 9.95151 3.5814 8.09468 4.78428 6.51502C5.38572 5.73904 6.09651 5.10162 6.91666 4.57506C7.1627 4.40878 7.49076 4.49192 7.65479 4.74135C7.81884 4.99077 7.73683 5.32333 7.49076 5.48961C6.77997 5.96075 6.15119 6.51502 5.63177 7.20786C4.56557 8.56585 4.01881 10.2009 4.01881 11.9469C4.01881 12.2517 3.77276 12.5012 3.47204 12.5012ZM9.70516 4.54735C9.45913 4.54735 9.24042 4.38107 9.18573 4.13165C9.13104 3.8268 9.29511 3.54966 9.59583 3.46652C10.2246 3.30024 10.908 3.24481 11.5642 3.24481C11.8649 3.24481 12.1109 3.49423 12.1109 3.79908C12.1109 4.10393 11.8649 4.35336 11.5642 4.35336C10.99 4.35336 10.3886 4.40878 9.84186 4.54735C9.78717 4.51964 9.73248 4.54735 9.70516 4.54735Z" fill="white"/>
<path d="M11.8375 1.10855C14.1612 1.10855 16.3483 1.85681 18.2073 3.2425C19.7382 4.37875 20.9138 5.8753 21.6792 7.62125L16.731 9.25637C15.7469 7.48267 13.9152 6.34642 11.8375 6.34642C8.74821 6.31872 6.23313 8.86834 6.23313 12C6.23313 15.1317 8.74821 17.6813 11.8375 17.6813C13.8878 17.6813 15.7469 16.545 16.731 14.7714L21.6792 16.4064C20.9411 18.1524 19.7382 19.6489 18.2073 20.7852C16.3483 22.1709 14.1339 22.9192 11.8375 22.9192C5.90505 22.8914 1.09353 18.0139 1.09353 12C1.09353 5.98613 5.90505 1.10855 11.8375 1.10855ZM11.8375 0C5.30361 0 0 5.37643 0 12C0 18.6236 5.30361 24 11.8375 24C17.0864 24 21.5425 20.5081 23.1008 15.7136L16.1296 13.4134C15.5555 15.2425 13.8332 16.5728 11.8375 16.5728C9.3497 16.5728 7.32663 14.5219 7.32663 12C7.32663 9.47808 9.3497 7.42723 11.8375 7.42723C13.8332 7.42723 15.5555 8.7575 16.1296 10.5866L23.1008 8.28638C21.5425 3.49192 17.0864 0 11.8375 0Z" fill="white"/>
<path d="M26.4087 9.69818C26.5728 10.4465 26.6548 11.2224 26.6548 11.9984C26.6548 12.7744 26.5728 13.5504 26.4087 14.2987L20.531 12.3587L19.4101 11.9984L20.5037 11.6381L26.4087 9.69818ZM27.1468 8.28479L20.1756 10.585L15.8835 11.9984L20.1756 13.4118L27.1468 15.712C27.5296 14.5481 27.721 13.3009 27.721 11.9984C27.721 10.6959 27.5296 9.44876 27.1468 8.28479Z" fill="#43B5C3"/>
<path d="M35.4944 7.056C36.7394 7.056 37.7189 7.3576 38.4329 7.9608C39.147 8.56402 39.504 9.39456 39.504 10.4525C39.504 11.5104 39.147 12.3409 38.4329 12.9442C37.7189 13.5474 36.7394 13.849 35.4944 13.849H33.1188V16.8H31.7457V7.056H35.4944ZM35.4532 12.6379C36.3229 12.6379 36.9865 12.4523 37.4443 12.0811C37.902 11.7006 38.1308 11.1577 38.1308 10.4525C38.1308 9.74722 37.902 9.20894 37.4443 8.83776C36.9865 8.45726 36.3229 8.26704 35.4532 8.26704H33.1188V12.6379H35.4532ZM47.1628 14.364H42.0547L40.9974 16.8H39.583L43.9359 7.056H45.2953L49.6619 16.8H48.2201L47.1628 14.364ZM46.6822 13.2504L44.6088 8.47584L42.5353 13.2504H46.6822ZM59.3621 7.056V16.8H58.2362L52.4689 9.53376V16.8H51.0958V7.056H52.2218L57.989 14.3222V7.056H59.3621ZM66.5372 16.9114C65.576 16.9114 64.7063 16.6979 63.9282 16.271C63.1592 15.8349 62.555 15.241 62.1156 14.4893C61.6762 13.7283 61.4565 12.8746 61.4565 11.928C61.4565 10.9814 61.6762 10.1323 62.1156 9.38064C62.555 8.6197 63.1638 8.02576 63.9419 7.59888C64.72 7.16272 65.5897 6.94464 66.5509 6.94464C67.3015 6.94464 67.9881 7.07456 68.6106 7.3344C69.2331 7.58496 69.764 7.9608 70.2035 8.46192L69.3109 9.33888C68.5877 8.56862 67.686 8.18352 66.6058 8.18352C65.8918 8.18352 65.2464 8.3459 64.6697 8.67072C64.093 8.99554 63.6398 9.44558 63.3103 10.021C62.9898 10.587 62.8297 11.2227 62.8297 11.928C62.8297 12.6333 62.9898 13.2736 63.3103 13.849C63.6398 14.415 64.093 14.8605 64.6697 15.1853C65.2464 15.5101 65.8918 15.6725 66.6058 15.6725C67.6769 15.6725 68.5786 15.2827 69.3109 14.5032L70.2035 15.3802C69.764 15.8813 69.2285 16.2618 68.5969 16.5216C67.9744 16.7814 67.2878 16.9114 66.5372 16.9114ZM78.0586 14.364H72.9505L71.8932 16.8H70.4788L74.8317 7.056H76.1911L80.5577 16.8H79.1159L78.0586 14.364ZM77.578 13.2504L75.5046 8.47584L73.4311 13.2504H77.578ZM85.1223 12.4709L83.3646 14.2805V16.8H81.9915V7.056H83.3646V12.4987L88.5826 7.056H90.148L86.0423 11.4408L90.4089 16.8H88.8023L85.1223 12.4709ZM98.8367 15.589V16.8H91.8611V7.056H98.6444V8.26704H93.2342V11.2598H98.054V12.443H93.2342V15.589H98.8367Z" fill="white"/>
</svg>
